<?xml version="1.0" encoding="UTF-8" standalone="no"?>
<svg
   xmlns="http://www.w3.org/2000/svg"
   version="1.1"
   viewBox="0 0 210 297"
   stroke="currentColor"
   fill="currentColor"
   height="1em"
   width="1em">
  <path
     d="m 191.69877,163.17227 c 0,49.68262 -40.27571,89.95834 -89.95833,89.95834 -49.682618,0 -89.958339,-40.27572 -89.958337,-89.95834 1e-6,-49.68262 40.275722,-147.637503 89.958337,-147.637502 49.68261,4e-6 89.95833,97.954892 89.95833,147.637502 z"
     style="opacity:1;vector-effect:none;fill:none;fill-opacity:1;stroke:currentColor;stroke-width:4;stroke-linecap:round;stroke-linejoin:round;stroke-miterlimit:4;stroke-dasharray:none;stroke-dashoffset:0;stroke-opacity:1"
     />
  <path
     transform="scale(0.26458333)"
     d="M 384.53125 58.714844 C 347.02568 58.714843 310.94034 73.495289 277.20117 98.630859 C 280.93545 99.97044 284.52973 101.58233 287.92383 103.52148 C 299.62887 110.20896 307.73577 120.06675 311.98633 133.28711 C 316.19881 146.38903 316.38783 162.13143 313.75586 178.89453 C 308.49819 212.38076 293.125 247.77439 269.47656 271.07227 C 245.39221 294.79959 209.75347 309.11165 176.39844 309.10938 C 157.81534 309.10809 142.4422 304.58645 129.6875 295.85547 C 76.704283 405.5811 44.531252 530.41179 44.53125 616.71484 C 44.531242 804.49168 196.75443 956.71484 384.53125 956.71484 C 411.49825 956.71484 437.72987 953.57018 462.88477 947.63672 C 456.43276 944.91582 450.54295 941.87724 445.31445 938.70312 C 424.23304 925.90502 409.57681 908.58034 409.37109 877.19531 C 409.16686 846.03688 423.94764 801.47264 453.74219 765.69531 C 484.23735 729.07668 524.34873 709.14543 569.57031 700.37109 C 613.26863 691.89232 653.92394 694.77604 674.95117 711.50977 C 686.85214 720.9807 693.5479 735.50973 696.01758 753.21875 C 714.35356 711.43815 724.53125 665.26565 724.53125 616.71484 C 724.53125 428.93808 572.30804 58.714859 384.53125 58.714844 z M 477.65039 292.59961 C 478.54857 292.58881 479.44963 292.58978 480.35156 292.60156 C 485.16186 292.66441 490.02218 293.04641 494.91797 293.73242 C 514.30519 296.44902 533.59512 303.83946 551.24023 313.74609 C 568.7856 323.59672 585.27139 336.25092 598.90039 350.32617 C 627.17733 379.52897 642.97835 414.68184 642.99023 452.58984 C 642.99594 470.78341 639.28704 487.74099 633.14648 502.27344 C 627.02818 516.75322 618.58372 528.71175 608.5293 538.31836 C 598.51035 547.89108 586.23991 555.76563 571.5625 561.96875 C 556.89808 568.16638 538.97236 573.0144 519.03125 575.06641 C 498.9145 577.13649 477.33332 576.27578 456.66016 571.3125 C 435.91993 566.33312 417.81183 557.63417 403.62695 545.66602 C 389.4689 533.7205 380.19752 519.39823 374.56445 503.55078 C 369.01353 487.93442 366.91853 470.58027 366.91406 452.6875 C 366.90966 435.05996 368.97707 414.93529 373.41211 395.69922 C 377.93996 376.06058 385.13662 356.4107 396.15039 339.46289 C 407.24164 322.39586 421.53818 309.11989 438.93164 301.10352 C 451.14059 295.4766 464.17765 292.76161 477.65039 292.59961 z M 169.36133 467.38477 C 191.53029 467.26053 213.45894 478.49069 228.875 500.07617 C 246.5576 524.83526 250.09947 554.95536 246.66211 581.29492 C 243.49638 605.55307 234.23178 630.22037 221.69922 647.86719 C 208.1066 667.00664 186.57228 683.5174 159.19531 686.42969 C 131.59582 689.36565 107.29464 677.13091 91.724609 654.46289 C 76.659164 632.52948 71.509698 603.96583 73.332031 579.17578 C 75.178035 554.06374 84.239713 530.16377 99.167969 509.67773 C 113.99233 489.33428 135.11958 471.92922 159.86523 468.13672 C 163.02373 467.65265 166.19433 467.40251 169.36133 467.38477 z "
     />
</svg>
